<svg width="161" height="32" viewBox="0 0 161 32" fill="none" xmlns="http://www.w3.org/2000/svg">
<path d="M8.87406 21.7019L0 11.9885V11.0498C0 4.95611 4.95611 0 11.0498 0C17.1435 0 22.0996 4.95611 22.0996 11.0498V11.2964C22.0996 12.6488 21.0018 13.7466 19.6494 13.7466C18.297 13.7466 17.1992 12.6488 17.1992 11.2964V11.0498C17.1992 7.65691 14.4387 4.90043 11.0498 4.90043C7.95523 4.90043 5.38568 7.19948 4.96007 10.1787L12.5136 18.4283C13.4205 19.4346 13.3369 20.9819 12.3306 21.8888C11.3282 22.7878 9.77698 22.7082 8.87406 21.7019Z" fill="white"/>
<path d="M13.2614 9.81279L22.0996 19.4903V20.429C22.0996 26.5228 17.1435 31.4789 11.0498 31.4789C4.95611 31.4789 0 26.5228 0 20.429V20.087C0 18.7346 1.09781 17.6368 2.4502 17.6368C3.80259 17.6368 4.90041 18.7346 4.90041 20.087V20.429C4.90041 23.822 7.66089 26.5784 11.0498 26.5784C14.1444 26.5784 16.7139 24.2794 17.1395 21.3001L9.62184 13.0864C8.71494 12.08 8.79848 10.5327 9.80482 9.62584C10.8072 8.72292 12.3545 8.80645 13.2614 9.81279Z" fill="white"/>
<path d="M32.4724 31.4788C27.7177 31.4788 23.9729 28.0335 23.9729 23.2629C23.9729 18.4768 27.7643 14.9691 32.5346 14.9691C37.2738 14.9691 41.0341 18.4144 41.0341 23.2006C41.0341 27.9711 37.1961 31.4788 32.4724 31.4788ZM32.5035 27.4878C34.7877 27.4878 36.6057 25.695 36.6057 23.2317C36.6057 20.7685 34.7877 18.9757 32.5035 18.9757C30.1727 18.9757 28.4014 20.7685 28.4014 23.2317C28.4014 25.695 30.1727 27.4878 32.5035 27.4878Z" fill="white"/>
<path d="M52.7416 31.0423H47.3964L41.8492 15.4212H46.6971L50.0534 26.6771H50.1467L53.503 15.4212H58.3044L52.7416 31.0423Z" fill="white"/>
<path d="M72.0593 17.5102L72.4944 15.4212H76.3324V31.0423H72.4944L72.0593 28.9533C70.8007 30.5279 68.9361 31.4477 66.7451 31.4477C62.5964 31.4477 59.1468 28.2205 59.1468 23.2317C59.1468 18.3365 62.5342 15.0158 66.7607 15.0158C68.9516 15.0158 70.8007 15.92 72.0593 17.5102ZM67.6619 27.4878C69.9616 27.4878 71.8262 25.695 71.8262 23.2317C71.8262 20.7685 69.9616 18.9757 67.6619 18.9757C65.4088 18.9757 63.6219 20.7529 63.6219 23.2317C63.6219 25.7106 65.4088 27.4878 67.6619 27.4878Z" fill="white"/>
<path d="M87.074 31.3697C83.3293 31.3697 81.2782 29.2651 81.2782 25.695V19.1316H78.4968V15.4212H81.3559L83.0807 11.0872H85.7843V15.4212H89.9486V19.1316H85.7843V24.8687C85.7843 26.6927 86.3127 27.5658 88.0063 27.5658C88.7211 27.5658 89.3737 27.4722 89.871 27.3319L90.4148 30.9176C89.3427 31.1826 88.1928 31.3697 87.074 31.3697Z" fill="white"/>
<path d="M108.558 23.4188C108.558 23.8242 108.543 24.2139 108.512 24.666H96.0807C96.3915 26.4745 97.8521 27.9243 100.074 27.9555C101.846 27.9867 103.368 27.0981 103.974 25.7261L107.906 27.1448C106.662 29.7328 103.881 31.4788 100.136 31.4788C95.0552 31.4788 91.5591 28.0335 91.5591 23.2785C91.5591 18.3833 95.3504 14.9691 100.105 14.9691C105.031 14.9691 108.558 18.5236 108.558 23.4188ZM100.012 18.4768C98.0852 18.4768 96.5314 19.7396 96.1274 21.5013H103.897C103.477 19.6305 101.954 18.4768 100.012 18.4768Z" fill="white"/>
<path d="M118.523 31.4788C113.784 31.4788 110.132 28.0023 110.132 23.2317C110.132 18.4456 113.862 14.9691 118.632 14.9691C122.423 14.9691 125.329 16.9802 126.494 20.0202L122.314 21.3921C121.709 19.9267 120.341 18.9757 118.585 18.9757C116.363 18.9757 114.654 20.7685 114.654 23.2317C114.654 25.695 116.363 27.4878 118.585 27.4878C120.341 27.4878 121.709 26.5368 122.314 25.0558L126.494 26.4277C125.298 29.4833 122.361 31.4788 118.523 31.4788Z" fill="white"/>
<path d="M138.398 15.0158C141.646 15.0158 144.008 17.4167 144.008 20.9556V31.0423H139.517V22.1405C139.517 20.0982 138.445 19.0692 136.689 19.0692C134.949 19.0692 133.706 20.2385 133.706 22.3587V31.0423H129.2V8.93574L133.706 8.5304V17.0113C134.809 15.7797 136.472 15.0158 138.398 15.0158Z" fill="white"/>
<path d="M149.655 31.4477C148.179 31.4477 146.983 30.2784 146.983 28.8286C146.983 27.3787 148.179 26.1938 149.655 26.1938C151.116 26.1938 152.297 27.3787 152.297 28.8286C152.297 30.2784 151.116 31.4477 149.655 31.4477Z" fill="white"/>
<path d="M156.648 8.70301C154.25 8.70301 152.297 6.75 152.297 4.3515C152.297 1.953 154.25 0 156.648 0C159.047 0 161 1.953 161 4.3515C161 6.75 159.047 8.70301 156.648 8.70301ZM156.648 0.636409C154.6 0.636409 152.933 2.30303 152.933 4.3515C152.933 6.39997 154.6 8.0666 156.648 8.0666C158.697 8.0666 160.363 6.39997 160.363 4.3515C160.363 2.30303 158.697 0.636409 156.648 0.636409Z" fill="white"/>
<path d="M157.651 6.57501L156.672 5.03964H155.662V6.57501H154.966V2.12405H156.867C157.07 2.12405 157.257 2.1678 157.424 2.25133C157.587 2.33486 157.734 2.44624 157.858 2.58546C157.981 2.72468 158.077 2.8798 158.14 3.05083C158.208 3.22187 158.24 3.39689 158.24 3.57588C158.24 3.79465 158.196 4.00149 158.112 4.19639C158.029 4.39129 157.906 4.55835 157.754 4.69359C157.647 4.78905 157.528 4.86065 157.392 4.90839L158.45 6.57501H157.651ZM156.879 4.38732C157.015 4.38732 157.126 4.35151 157.221 4.27991C157.325 4.20434 157.4 4.1049 157.456 3.98159C157.516 3.85431 157.544 3.71908 157.544 3.57588C157.544 3.43269 157.512 3.29745 157.444 3.17812C157.38 3.05481 157.293 2.95538 157.186 2.88378C157.082 2.81218 156.971 2.77638 156.843 2.77638H155.662V4.39129H156.879V4.38732Z" fill="white"/>
</svg>
